<svg width="1214" height="135" viewBox="0 0 1214 135" fill="none" xmlns="http://www.w3.org/2000/svg">
<path d="M0.3125 2.09091H44.5455L74.9716 76.2386H76.5057L106.932 2.09091H151.165V133H116.392V57.3182H115.369L86.2216 131.977H65.2557L36.108 56.8068H35.0852V133H0.3125V2.09091ZM294.826 67.5455C294.826 82.1193 291.992 94.4134 286.325 104.428C280.657 114.399 273.008 121.963 263.377 127.119C253.746 132.233 243.008 134.79 231.161 134.79C219.229 134.79 208.448 132.212 198.817 127.055C189.229 121.857 181.602 114.271 175.934 104.3C170.309 94.2855 167.496 82.0341 167.496 67.5455C167.496 52.9716 170.309 40.6989 175.934 30.7273C181.602 20.7131 189.229 13.1491 198.817 8.03551C208.448 2.87926 219.229 0.301131 231.161 0.301131C243.008 0.301131 253.746 2.87926 263.377 8.03551C273.008 13.1491 280.657 20.7131 286.325 30.7273C291.992 40.6989 294.826 52.9716 294.826 67.5455ZM258.264 67.5455C258.264 59.7045 257.219 53.0994 255.131 47.7301C253.086 42.3182 250.039 38.2273 245.991 35.4574C241.985 32.6449 237.042 31.2386 231.161 31.2386C225.281 31.2386 220.316 32.6449 216.268 35.4574C212.262 38.2273 209.215 42.3182 207.127 47.7301C205.082 53.0994 204.059 59.7045 204.059 67.5455C204.059 75.3864 205.082 82.0128 207.127 87.4247C209.215 92.794 212.262 96.8849 216.268 99.6974C220.316 102.467 225.281 103.852 231.161 103.852C237.042 103.852 241.985 102.467 245.991 99.6974C250.039 96.8849 253.086 92.794 255.131 87.4247C257.219 82.0128 258.264 75.3864 258.264 67.5455ZM338.803 2.09091L365.65 94.392H366.673L393.519 2.09091H433.661L390.451 133H341.871L298.661 2.09091H338.803ZM481.809 2.09091V133H446.27V2.09091H481.809ZM498.652 133V2.09091H592.999V30.7273H534.192V53.2273H588.141V81.8636H534.192V104.364H592.743V133H498.652ZM759.751 2.09091V133H730.092L682.791 64.2216H682.024V133H646.484V2.09091H676.655L723.189 70.6136H724.212V2.09091H759.751ZM812.102 2.09091V133H776.562V2.09091H812.102ZM913.96 45.3011C913.406 43.0426 912.532 41.0611 911.339 39.3565C910.146 37.6094 908.654 36.1392 906.864 34.946C905.117 33.7102 903.072 32.794 900.728 32.1974C898.427 31.5582 895.891 31.2386 893.121 31.2386C887.156 31.2386 882.063 32.6662 877.844 35.5213C873.668 38.3764 870.472 42.4886 868.256 47.858C866.083 53.2273 864.996 59.7045 864.996 67.2898C864.996 74.9602 866.04 81.5227 868.129 86.9773C870.217 92.4318 873.327 96.608 877.461 99.5057C881.594 102.403 886.729 103.852 892.866 103.852C898.278 103.852 902.773 103.064 906.353 101.487C909.975 99.9105 912.681 97.6733 914.471 94.7756C916.261 91.8778 917.156 88.4687 917.156 84.5483L923.292 85.1875H893.377V59.875H951.417V78.0284C951.417 89.9602 948.881 100.166 943.81 108.646C938.782 117.084 931.836 123.561 922.972 128.078C914.151 132.553 904.031 134.79 892.61 134.79C879.869 134.79 868.683 132.084 859.052 126.672C849.421 121.26 841.9 113.547 836.488 103.533C831.119 93.5185 828.434 81.608 828.434 67.8011C828.434 56.9773 830.075 47.3892 833.356 39.0369C836.68 30.6847 841.282 23.6321 847.163 17.8793C853.043 12.0838 859.84 7.71591 867.553 4.77556C875.266 1.79261 883.533 0.301131 892.354 0.301131C900.11 0.301131 907.312 1.40909 913.96 3.625C920.65 5.79829 926.552 8.90908 931.665 12.9574C936.822 16.9631 940.977 21.7145 944.13 27.2116C947.283 32.7088 949.201 38.7386 949.883 45.3011H913.96ZM967.988 133V2.09091H1003.53V53.2273H1050.57V2.09091H1086.11V133H1050.57V81.8636H1003.53V133H967.988ZM1099.41 30.7273V2.09091H1213.19V30.7273H1173.81V133H1138.78V30.7273H1099.41Z" fill="#A3E635"/>
</svg>
